<?xml version="1.0" encoding="UTF-8" standalone="no"?>
<svg width="1363px" height="144px" viewBox="0 0 1363 144" version="1.1" xmlns="http://www.w3.org/2000/svg" xmlns:xlink="http://www.w3.org/1999/xlink" xmlns:sketch="http://www.bohemiancoding.com/sketch/ns">
    <!-- Generator: Sketch 3.3.3 (12072) - http://www.bohemiancoding.com/sketch -->
    <title>Group</title>
    <desc>Created with Sketch.</desc>
    <defs>
        <path id="path-1" d="M42,64 L221,17 L324,68.5 L350,120 L0,108 L42,64 Z"></path>
        <path id="path-2" d="M408,117 L592,46 L653,143 L378,144 L408,117 Z"></path>
        <path id="path-3" d="M1303,86 L1362,54 L1363,100 L1303,86 Z"></path>
        <path id="path-4" d="M944,125 L884,60 L944,7 L1128,88 L944,125 Z"></path>
    </defs>
    <g id="Page-1" stroke="none" stroke-width="1" fill="none" fill-rule="evenodd" sketch:type="MSPage">
        <g id="Group" sketch:type="MSLayerGroup">
            <g id="Path-502" opacity="0.161089086">
                <use fill="none" sketch:type="MSShapeGroup" xlink:href="#path-1"></use>
                <use fill="#000000" fill-rule="evenodd" xlink:href="#path-1"></use>
            </g>
            <g id="Path-503-Copy" opacity="0.161089086">
                <use fill="none" sketch:type="MSShapeGroup" xlink:href="#path-2"></use>
                <use fill="#000000" fill-rule="evenodd" xlink:href="#path-2"></use>
            </g>
            <g id="Path-504" opacity="0.161089086">
                <use fill="none" sketch:type="MSShapeGroup" xlink:href="#path-3"></use>
                <use fill="#000000" fill-rule="evenodd" xlink:href="#path-3"></use>
            </g>
            <g id="Path-505" opacity="0.161089086">
                <use fill="none" sketch:type="MSShapeGroup" xlink:href="#path-4"></use>
                <use fill="#000000" fill-rule="evenodd" xlink:href="#path-4"></use>
            </g>
            <path d="M42,37 L207,10 L315,37 L376,65 L350,93 L0,81 L42,37 Z" id="Path-502-Copy" fill="#F5F5F5" sketch:type="MSShapeGroup"></path>
            <path d="M408,78 L590,24 L645,88 L400,120 L408,78 Z" id="Path-503" fill="#F5F5F5" sketch:type="MSShapeGroup"></path>
            <path d="M1303,63.5 L1362,47 L1363,80 L1303,63.5 Z" id="Path-504-Copy" fill="#F5F5F5" sketch:type="MSShapeGroup"></path>
            <path d="M944,93 L884,28 L944,-2.22044605e-16 L1128,56 L944,93 Z" id="Path-505-Copy" fill="#F5F5F5" sketch:type="MSShapeGroup"></path>
        </g>
    </g>
</svg>