<?xml version="1.0" encoding="UTF-8" standalone="no"?>
<svg width="318px" height="159px" viewBox="0 0 318 159" version="1.1" xmlns="http://www.w3.org/2000/svg" xmlns:xlink="http://www.w3.org/1999/xlink" xmlns:sketch="http://www.bohemiancoding.com/sketch/ns">
    <!-- Generator: Sketch 3.3.3 (12072) - http://www.bohemiancoding.com/sketch -->
    <title>Imported Layers</title>
    <desc>Created with Sketch.</desc>
    <defs></defs>
    <g id="Page-1" stroke="none" stroke-width="1" fill="none" fill-rule="evenodd" sketch:type="MSPage">
        <g id="About---Desktop" sketch:type="MSArtboardGroup" transform="translate(-768.000000, -706.000000)" fill="#E4E4E4">
            <g id="intro-text" sketch:type="MSLayerGroup" transform="translate(-66.000000, 204.000000)">
                <path d="M1149,656 L1123,656 L1123,639 L1129,639 C1130.06965,639.474445 1131.2912,637.112015 1131,636 L1131,627 L1139,627 C1140.87988,626.917871 1142.10143,624.555441 1142,623 L1142,583 C1142.10143,581.222704 1140.87988,581.176066 1139,581 L1131,581 C1131.21553,581.176066 1131.2912,579.437877 1131,579 L1131,572 C1131.2912,570.459927 1130.06965,570.413288 1129,570 L1036,570 L1036,505 C1035.80085,503.884075 1035.4306,503.119021 1035,503 C1034.17211,502.097454 1033.34963,501.891167 1033,502 L920,525 C918.739583,525.128004 917.83873,526.783678 918,528 L918,533 L884,533 C882.055071,532.743566 880.854235,532.790205 881,534 L881,545 L872,545 C870.34399,545.30014 869.143153,545.346779 869,547 L869,567 C869.143153,568.050858 870.34399,570.413288 872,570 L881,570 L881,576 L872,576 C870.34399,575.794677 869.143153,575.841316 869,577 L869,597 C869.143153,598.545395 870.34399,600.907825 872,601 L881,601 L881,606 L872,606 C870.34399,606.289214 869.143153,606.335852 869,608 L869,628 C869.143153,629.039932 870.34399,631.402361 872,631 L881,631 L881,656 L854,656 L854,649 L862,649 C861.602118,649.340324 861.607523,649.340324 862,649 C863.106541,649.340324 864.317287,647.557291 864,646 C864.317287,645.745556 864.259632,645.149119 864,645 L855,606 C854.474574,604.33846 853.387245,603.411964 852,603 C850.885578,603.411964 849.798249,604.229936 850,605 L840,645 C839.857342,645.685464 840.043819,647.101666 841,648 C841.068989,648.392303 841.850929,649.340324 843,649 L851,649 L851,656 L837,656 C835.210746,655.618611 834,656.822248 834,658 C834,659.794569 835.210746,661 837,661 L1149,661 C1150.79016,661 1152,659.794569 1152,658 C1152,656.822248 1150.79016,655.618611 1149,656 L1149,656 Z M846,644 L852,619 L858,644 L846,644 L846,644 Z M1137,622 L1122,622 L1127,613 L1137,613 L1137,622 L1137,622 Z M1136,594 L1136,598 L1135,598 L1136,594 L1136,594 Z M1136,600 L1136,610 L1128,610 L1133,600 L1136,600 L1136,600 Z M1122,610 L1113,610 L1107,600 L1128,600 L1122,610 L1122,610 Z M1121,613 L1118,619 L1114,613 L1121,613 L1121,613 Z M1107,610 L1085,610 L1091,600 L1101,600 L1107,610 L1107,610 Z M1069,610 L1063,600 L1084,600 L1078,610 L1069,610 L1069,610 Z M1077,613 L1074,619 L1070,613 L1077,613 L1077,613 Z M1026,610 L1020,600 L1041,600 L1035,610 L1026,610 L1026,610 Z M1034,613 L1031,619 L1027,613 L1034,613 L1034,613 Z M1011,600 L1014,600 L1020,610 L1011,610 L1011,600 L1011,600 Z M1046,600 L1057,600 L1062,610 L1041,610 L1046,600 L1046,600 Z M1052,591 L1055,598 L1048,598 L1052,591 L1052,591 Z M1091,597 L1095,590 L1099,597 L1091,597 L1091,597 Z M1086,598 L1062,598 L1056,587 L1092,587 L1086,598 L1086,598 Z M1042,598 L1018,598 L1012,587 L1048,587 L1042,598 L1042,598 Z M1013,597 L1011,597 L1011,593 L1013,597 L1013,597 Z M1011,613 L1021,613 L1026,622 L1011,622 L1011,613 L1011,613 Z M1040,613 L1064,613 L1069,622 L1035,622 L1040,613 L1040,613 Z M1083,613 L1108,613 L1113,622 L1078,622 L1083,613 L1083,613 Z M1136,587 L1130,598 L1106,598 L1100,587 L1136,587 L1136,587 Z M1031,508 L1031,570 L1009,570 L1009,513 C1009.05942,512.602523 1009.03474,512.483162 1009,512 L1031,508 L1031,508 Z M1006,571 L997,571 C995.346609,570.651749 994.130435,570.698514 994,572 L994,639 L985,639 L985,517 L1006,513 L1006,571 L1006,571 Z M983,639 L964,639 L964,632 L973,632 C974.458478,631.81963 975.695652,629.455494 976,628 L976,608 C975.695652,606.735009 974.458478,606.688336 973,607 L964,607 L964,601 L973,601 C974.458478,601.303059 975.695652,598.938922 976,597 L976,578 C975.695652,576.218438 974.458478,576.171765 973,576 L964,576 L964,571 L973,571 C974.458478,570.786488 975.695652,568.422351 976,567 L976,547 C975.695652,545.701866 974.458478,545.655194 973,546 L964,546 L964,535 C963.826087,533.451258 962.913043,532.46665 962,532 L962,522 L983,518 L983,639 L983,639 Z M886,612 L958,612 L958,626 L886,626 L886,612 Z M964,612 L970,612 L970,626 L964,626 L964,612 Z M886,581 L958,581 L958,595 L886,595 L886,581 Z M964,581 L970,581 L970,595 L964,595 L964,581 Z M886,551 L958,551 L958,565 L886,565 L886,551 Z M964,551 L970,551 L970,565 L964,565 L964,551 Z M923,530 L959,522 L959,532 L923,532 L923,530 L923,530 Z M886,538 L920,538 C919.7977,538 919.9246,538.041125 920,538 C920.2162,538.044625 920.371,538 921,538 L958,538 L958,545 L886,545 L886,538 L886,538 Z M875,551 L881,551 L881,565 L875,565 L875,551 Z M886,570 L958,570 L958,575 L886,575 L886,570 Z M875,581 L881,581 L881,595 L875,595 L875,581 Z M886,601 L958,601 L958,606 L886,606 L886,601 Z M875,612 L881,612 L881,626 L875,626 L875,612 Z M886,631 L891,631 L891,655 L886,655 L886,631 Z M894,631 L899,631 L899,655 L894,655 L894,631 Z M902,631 L907,631 L907,655 L902,655 L902,631 Z M911,631 L916,631 L916,655 L911,655 L911,631 Z M919,631 L959,631 L959,655 L919,655 L919,631 Z M964,644 L995,644 L995,656 L964,656 L964,644 Z M1126,576 L1126,579 C1125.84539,579.651236 1125.89932,581.393258 1126,581 L1008,581 C1006.5907,581.393258 1005.39337,581.44 1005,583 L1005,623 C1005.39337,624.868315 1006.5907,627.235955 1008,627 L1030,627 C1030.63436,627.37618 1030.90673,627.235955 1031,627 L1073,627 C1072.99482,627.235955 1073.26719,627.37618 1074,627 C1073.83619,627.37618 1117,627 1117,627 C1117.62229,627.37618 1117.89376,627.235955 1118,627 L1126,627 L1126,634 L1054,634 C1053.19305,634.426966 1052.77866,633.94427 1052,634 L1011,655 C1010.66719,655.299775 1010.42899,656 1010,656 L1000,656 L1000,576 L1126,576 Z M1054,639 L1065,639 L1065,655 L1022,655 L1054,639 L1054,639 Z M1067,639 L1082,639 L1082,655 L1067,655 L1067,639 Z M1085,639 L1100,639 L1100,655 L1085,655 L1085,639 Z M1103,639 L1117,639 L1117,655 L1103,655 L1103,639 Z" id="Imported-Layers" sketch:type="MSShapeGroup"></path>
            </g>
        </g>
    </g>
</svg>