<?xml version="1.0" encoding="UTF-8" standalone="no"?>
<svg width="44px" height="32px" viewBox="0 0 44 32" version="1.1" xmlns="http://www.w3.org/2000/svg" xmlns:xlink="http://www.w3.org/1999/xlink" xmlns:sketch="http://www.bohemiancoding.com/sketch/ns">
    <!-- Generator: Sketch 3.3.3 (12072) - http://www.bohemiancoding.com/sketch -->
    <title>nav_icon</title>
    <desc>Created with Sketch.</desc>
    <defs></defs>
    <g id="Page-1" stroke="none" stroke-width="1" fill="none" fill-rule="evenodd" sketch:type="MSPage">
        <g id="nav_icon" sketch:type="MSLayerGroup" fill="#000000">
            <g id="Page-1" sketch:type="MSShapeGroup">
                <g id="About---Desktop">
                    <g id="internal-masthead">
                        <g id="hamburger-nav">
                            <rect id="Rectangle-2" x="9" y="9" width="24" height="2"></rect>
                            <rect id="Rectangle-4" x="15" y="15" width="18" height="2"></rect>
                            <rect id="Rectangle-4-Copy" x="21" y="21" width="12" height="2"></rect>
                            <path d="M1,2 L43,2 L42,1 L42,31 L43,30 L1,30 L2,31 L2,1 L1,2 L1,2 Z M1,0 L0,0 L0,1 L0,31 L0,32 L1,32 L43,32 L44,32 L44,31 L44,1 L44,0 L43,0 L1,0 L1,0 Z" id="Shape"></path>
                        </g>
                    </g>
                </g>
            </g>
        </g>
    </g>
</svg>