<?xml version="1.0" encoding="UTF-8" standalone="no"?>
<svg width="155px" height="49px" viewBox="0 0 155 49" version="1.1" xmlns="http://www.w3.org/2000/svg" xmlns:xlink="http://www.w3.org/1999/xlink" xmlns:sketch="http://www.bohemiancoding.com/sketch/ns">
    <!-- Generator: Sketch 3.3.3 (12072) - http://www.bohemiancoding.com/sketch -->
    <title>Logo@2x</title>
    <desc>Created with Sketch.</desc>
    <defs></defs>
    <g id="Page-1" stroke="none" stroke-width="1" fill="none" fill-rule="evenodd" sketch:type="MSPage">
        <g id="About---Desktop" sketch:type="MSArtboardGroup" transform="translate(-70.000000, -27.000000)">
            <g id="internal-masthead" sketch:type="MSLayerGroup">
                <g id="Logo" transform="translate(70.000000, 27.000000)" sketch:type="MSShapeGroup">
                    <path d="M134.78721,18.8972663 L141.623017,10.1338385 L141.52466,0.125580737 L154.795822,16.5006941 L134.78721,18.8972663" id="Fill-1" fill="#464646"></path>
                    <path d="M137.149533,10.4311048 L147.239023,8.45474504 L150.971317,0.111968839 L153.373598,15.781898 L137.149533,10.4311048" id="Fill-2" fill="#B30086"></path>
                    <path d="M4,13 L4,22 L0,22 L0,0 L4,0 L4,9 L14,9 L14,0 L18,0 L18,22 L14,22 L14,13 L4,13" id="Fill-3" fill="#424242"></path>
                    <path d="M33,22 C27.6795651,22 24,18.7513087 24,12 L24,0 L28,0 L28,12 C28,17 30,18 33,18 C36,18 39,17 39,12 L39,0 L43,0 L43,12 C43,18.7513087 39.2570018,22 33,22 Z" id="Fill-4" fill="#424242"></path>
                    <path d="M63,0 L67,0 L67,22 L64,22 L52,6 L52,22 L48,22 L48,0 L52,0 L63,15 L63,0" id="Fill-5" fill="#424242"></path>
                    <path d="M83,22 L79,22 L79,4 L72,4 L72,0 L90,0 L90,4 L83,4 L83,22" id="Fill-6" fill="#424242"></path>
                    <path d="M111,4 L98,4 L98,9 L109,9 L109,13 L98,13 L98,18 L111,18 L111,22 L94,22 L94,0 L111,0 L111,3" id="Fill-7" fill="#424242"></path>
                    <path d="M129,22 L124,14 L119,14 L119,22 L115,22 L115,0 L125,0 C130.129457,0 133.296346,2.67121657 133,7 C133.296346,10.6228871 131.088986,12.8227125 128,14 L134,22 L129,22 L129,22 Z M125,4 L119,4 L119,11 L125,11 C127.272182,11 129,9.62994918 129,7 C129,5.1917622 127.334333,4 125,4 L125,4 Z" id="Fill-8" fill="#424242"></path>
                    <path d="M8,49 L0,49 L0,27 L8,27 C15.197455,27 20,31.7457741 20,38 C20,44.1913737 15.197455,49 8,49 L8,49 Z M8,31 L4,31 L4,45 L8,45 C12.9765984,45 16,42.0884902 16,38.4666667 C16,33.9707367 12.9765984,31 8,31 L8,31 Z" id="Fill-9" fill="#424242"></path>
                    <path d="M34,49 C28.6795651,49 25,45.750879 25,39 L25,27 L29,27 L29,39 C29,44 31,45 34,45 C37,45 40,44 40,39 L40,27 L44,27 L44,39 C44,45.750879 40.2570018,49 34,49 Z" id="Fill-10" fill="#424242"></path>
                    <path d="M64,27 L68,27 L68,49 L65,49 L53,33 L53,49 L49,49 L49,27 L53,27 L64,42 L64,27" id="Fill-11" fill="#424242"></path>
                    <path d="M90,27 L94,27 L94,49 L91,49 L79,33 L79,49 L75,49 L75,27 L79,27 L90,42 L90,27" id="Fill-12" fill="#424242"></path>
                    <path d="M100,27 L104,27 L104,49 L100,49 L100,27 Z" id="Fill-13" fill="#424242"></path>
                    <path d="M125,27 L129,27 L129,49 L126,49 L114,33 L114,49 L110,49 L110,27 L114,27 L125,42 L125,27" id="Fill-14" fill="#424242"></path>
                    <path d="M146,49 C138.616848,49 134,44.044138 134,38 C134,31.2735172 138.808752,26 146,26 C149.485519,26 151.889895,27.0800276 154,29 L152,32 C149.966394,30.5111448 148.267301,29.5895036 145,30 C141.277691,29.5895036 138.135972,33.1476828 138,37 C138.135972,42.0746758 141.181961,45.4418208 146,45 C147.882601,45.4418208 149.806547,44.7747449 151,44 L151,40 L145,40 L145,36 L155,36 L155,46 C152.788419,47.4117241 149.614197,49 146,49" id="Fill-15" fill="#424242"></path>
                </g>
            </g>
        </g>
    </g>
</svg>